<?xml version="1.0" encoding="UTF-8"?>
<svg width="1189.9" height="512" id="Ebene_2" data-name="Ebene 2" xmlns="http://www.w3.org/2000/svg" viewBox="0 0 1189.9 512">
  <defs>
    <style>
      .cls-1 {
        fill: #363636;
      }

      .cls-1, .cls-2 {
        stroke-width: 0px;
      }

      .cls-2 {
        fill: #4ba1e2;
      }
    </style>
  </defs>
  <g id="Ebene_1-2">
    <g id="Elemente">
      <path class="cls-1" d="M448.13,298.7h-41.03v-159.35h-52.54v-34.15h146.12v34.15h-52.54v159.35Z"/>
      <path class="cls-1" d="M565.21,105.2c17.56,0,32.05,2.12,43.48,6.35,11.43,4.24,19.92,10.63,25.48,19.19,5.56,8.56,8.34,19.37,8.34,32.43,0,8.83-1.68,16.55-5.03,23.16-3.35,6.62-7.76,12.22-13.24,16.81-5.47,4.59-11.38,8.34-17.74,11.25l56.91,84.31h-45.53l-46.19-74.25h-21.84v74.25h-41.03V105.2h56.38ZM562.3,138.82h-12.44v52.28h13.24c13.59,0,23.31-2.27,29.18-6.82,5.87-4.54,8.8-11.23,8.8-20.05s-3.16-15.71-9.46-19.59c-6.31-3.88-16.08-5.82-29.32-5.82Z"/>
      <path class="cls-1" d="M781.54,298.7h-111.44V105.2h111.44v33.62h-70.41v42.49h65.52v33.62h-65.52v49.9h70.41v33.88Z"/>
      <path class="cls-1" d="M931.58,298.7l-14.03-46.06h-70.54l-14.03,46.06h-44.21l68.29-194.29h50.16l68.56,194.29h-44.21ZM907.75,218.23l-14.03-45c-.88-3-2.05-6.86-3.51-11.58-1.46-4.72-2.91-9.53-4.37-14.43-1.45-4.9-2.63-9.15-3.51-12.77-.88,3.62-2.1,8.1-3.64,13.44-1.54,5.34-3.02,10.39-4.43,15.15-1.41,4.76-2.43,8.16-3.05,10.19l-13.9,45h50.43Z"/>
      <path class="cls-1" d="M1064.96,298.44l-46.59-151.81h-1.19c.17,3.62.46,9.06.86,16.34.4,7.28.77,15.02,1.13,23.23.35,8.21.53,15.62.53,22.24v90h-36.66V104.94h55.85l45.79,147.97h.79l48.57-147.97h55.85v193.5h-38.25v-91.59c0-6.09.11-13.1.33-21.04.22-7.94.51-15.51.86-22.7.35-7.19.62-12.59.8-16.21h-1.19l-49.9,151.54h-37.59Z"/>
      <path class="cls-1" d="M349.37,509.34h-41.01v-83.74h-65.02v83.74h-41.14v-194.02h41.14v76.04h65.02v-76.04h41.01v194.02Z"/>
      <path class="cls-1" d="M500.64,509.34l-14.07-46.18h-70.73l-14.07,46.18h-44.32l68.48-194.82h50.3l68.74,194.82h-44.32ZM476.76,428.66l-14.07-45.12c-.88-3.01-2.06-6.88-3.52-11.61-1.46-4.73-2.92-9.56-4.38-14.47-1.46-4.91-2.63-9.18-3.52-12.81-.88,3.63-2.1,8.12-3.65,13.47-1.55,5.35-3.03,10.42-4.45,15.19-1.42,4.78-2.43,8.19-3.05,10.22l-13.93,45.12h50.56Z"/>
      <path class="cls-1" d="M616.46,315.32c25.03,0,43.31,5.38,54.81,16.12,11.5,10.75,17.25,25.55,17.25,44.39,0,8.49-1.28,16.61-3.85,24.35-2.57,7.74-6.75,14.62-12.54,20.64-5.8,6.02-13.52,10.77-23.16,14.27-9.64,3.5-21.55,5.24-35.7,5.24h-17.65v69.01h-41.14v-194.02h61.98ZM614.33,349.03h-18.71v57.6h13.54c7.7,0,14.38-1.02,20.04-3.05,5.66-2.03,10.04-5.22,13.14-9.56,3.1-4.33,4.65-9.91,4.65-16.72,0-9.56-2.65-16.66-7.96-21.3-5.31-4.65-13.54-6.97-24.68-6.97Z"/>
      <path class="cls-1" d="M812.41,509.34h-111.74v-194.02h111.74v33.71h-70.6v42.6h65.69v33.71h-65.69v50.03h70.6v33.97Z"/>
      <path class="cls-1" d="M883.88,315.32c17.61,0,32.14,2.12,43.6,6.37,11.46,4.25,19.97,10.66,25.54,19.24,5.58,8.58,8.36,19.42,8.36,32.52,0,8.85-1.68,16.59-5.04,23.22-3.36,6.64-7.79,12.26-13.27,16.86-5.49,4.6-11.41,8.36-17.78,11.28l57.07,84.54h-45.65l-46.32-74.45h-21.9v74.45h-41.14v-194.02h56.53ZM880.96,349.03h-12.47v52.42h13.27c13.62,0,23.38-2.28,29.26-6.83,5.88-4.56,8.83-11.26,8.83-20.1s-3.17-15.75-9.49-19.64c-6.33-3.89-16.12-5.84-29.39-5.84Z"/>
      <path class="cls-1" d="M1108.82,455.46c0,11.5-2.79,21.5-8.36,29.99-5.57,8.49-13.69,15.04-24.35,19.64-10.66,4.6-23.6,6.9-38.82,6.9-6.73,0-13.29-.44-19.71-1.33-6.42-.89-12.56-2.19-18.45-3.91-5.89-1.73-11.48-3.87-16.79-6.44v-38.22c9.2,4.07,18.75,7.74,28.67,11.01,9.91,3.28,19.73,4.91,29.46,4.91,6.72,0,12.14-.88,16.26-2.65,4.11-1.77,7.1-4.2,8.96-7.3,1.86-3.1,2.79-6.64,2.79-10.62,0-4.87-1.64-9.02-4.91-12.48-3.28-3.45-7.76-6.68-13.47-9.69-5.71-3.01-12.14-6.24-19.31-9.69-4.51-2.12-9.42-4.71-14.73-7.76-5.31-3.05-10.35-6.79-15.13-11.21-4.78-4.42-8.69-9.8-11.75-16.12-3.05-6.32-4.58-13.91-4.58-22.76,0-11.59,2.65-21.5,7.96-29.73,5.31-8.23,12.89-14.53,22.76-18.91,9.86-4.38,21.52-6.57,34.97-6.57,10.09,0,19.71,1.17,28.86,3.52,9.16,2.34,18.73,5.73,28.73,10.15l-13.27,31.98c-8.94-3.63-16.94-6.44-24.02-8.43-7.08-1.99-14.29-2.99-21.63-2.99-5.13,0-9.51.82-13.14,2.46-3.63,1.64-6.37,3.94-8.23,6.9-1.86,2.97-2.79,6.39-2.79,10.28,0,4.6,1.35,8.47,4.05,11.61,2.7,3.14,6.77,6.17,12.21,9.09,5.44,2.92,12.23,6.33,20.37,10.22,9.91,4.69,18.38,9.58,25.41,14.66,7.03,5.09,12.45,11.06,16.26,17.91,3.8,6.86,5.71,15.37,5.71,25.55Z"/>
      <path class="cls-2" d="M375.24,178.14c-5.77-10.4-14-19.45-24.67-27.18-10.68-7.73-23.53-15.14-38.57-22.26-12.35-5.92-22.66-11.08-30.9-15.51-8.26-4.44-14.44-9.04-18.53-13.81-4.11-4.76-6.14-10.64-6.14-17.61,0-5.92,1.4-11.12,4.22-15.62,2.82-4.5,6.97-7.98,12.48-10.47,5.51-2.49,12.15-3.72,19.95-3.72,11.14,0,22.07,1.51,32.82,4.54,10.75,3.02,22.9,7.28,36.45,12.78l20.15-48.53c-15.18-6.71-29.72-11.86-43.61-15.42-13.9-3.56-28.51-5.33-43.81-5.33-20.41,0-38.11,3.32-53.07,9.96-14.99,6.66-26.5,16.23-34.55,28.71-8.06,12.48-12.08,27.53-12.08,45.12,0,13.42,2.3,24.95,6.95,34.54,4.63,9.61,10.57,17.76,17.81,24.47,7.27,6.73,14.92,12.39,22.98,17.02,8.06,4.65,15.51,8.57,22.35,11.8,10.88,5.22,20.65,10.12,29.3,14.7,8.67,4.57,15.49,9.46,20.45,14.7,4.98,5.24,7.45,11.56,7.45,18.94,0,6.05-1.4,11.41-4.22,16.12-1.29,2.14-2.89,4.06-4.89,5.77l-.02.02s-.04.04-.07.07c-1.81,1.53-3.89,2.91-6.27,4.13-.29.15-.61.3-.94.44-4.54,2.03-11.43,4.04-21.39,4.55-.66.02-1.35.06-2.03.07-.87.02-1.75.04-2.67.04s-1.86,0-2.77-.04c-.94-.02-1.86-.04-2.78-.07-34.91-1.12-57.25-13.02-82.66-23.82-16.93-7.19-35.2-13.92-59.45-16.65-.77-.09-1.57-.18-2.36-.26-1.49-.15-3.02-.3-4.57-.41-.79-.07-1.59-.13-2.4-.17-4.65-.31-9.5-.48-14.6-.48-1.11,0-2.21,0-3.28.04-.72,0-1.42.02-2.12.04-.94.02-1.88.06-2.8.09-.79.02-1.57.06-2.32.09-.15.02-.29.02-.42.04-1.14.06-2.27.13-3.36.2-1.7.11-3.36.26-4.94.41-2.6.26-5.03.55-7.32.87-2.01.28-3.87.57-5.62.87-10.31,1.81-15.91,3.85-15.91,3.85v.02c-3.76,1.14-7.36,2.47-10.81,3.96-16.19,6.99-28.51,16.93-36.97,29.82-8.45,12.89-12.69,28.06-12.69,45.53,0,15.43,2.89,28.36,8.67,38.76,5.77,10.42,14,19.47,24.67,27.2,10.68,7.73,23.53,15.14,38.57,22.26,12.35,5.9,22.66,11.08,30.9,15.51,8.26,4.43,14.44,9.04,18.53,13.79,4.11,4.78,6.16,10.64,6.16,17.63,0,5.92-1.42,11.12-4.24,15.62-2.82,4.5-6.97,7.98-12.48,10.47-5.51,2.47-12.15,3.72-19.93,3.72-11.16,0-22.09-1.51-32.84-4.54-10.73-3.02-22.9-7.28-36.45-12.8L1.42,491.26c15.18,6.71,29.71,11.86,43.61,15.42,13.88,3.54,28.49,5.33,43.79,5.33,20.41,0,38.11-3.32,53.09-9.98,14.97-6.64,26.48-16.21,34.54-28.69,8.06-12.48,12.08-27.53,12.08-45.12,0-13.42-2.3-24.95-6.93-34.55-4.65-9.59-10.58-17.76-17.83-24.47s-14.9-12.37-22.96-17.02c-8.06-4.63-15.53-8.56-22.37-11.78-10.88-5.24-20.65-10.14-29.3-14.7-8.67-4.57-15.49-9.48-20.45-14.7-4.96-5.26-7.45-11.56-7.45-18.94,0-6.05,1.4-11.41,4.22-16.12,1.22-2.01,2.73-3.84,4.55-5.48,0,0,.04-.04.13-.11.07-.07.18-.18.33-.3.17-.13.33-.26.5-.41.17-.13.33-.28.53-.42.31-.24.66-.48,1-.72.56-.4,1.18-.75,1.78-1.12,2.78-1.65,6.93-3.63,12.6-4.98.5-.09,1-.22,1.51-.31,3.98-.74,8.46-1.16,13.44-1.24.15-.02.3-.02.44,0,12.54.07,23.51,1.53,33.56,3.85.59.13,1.18.26,1.75.41.81.2,1.62.41,2.42.63,2.8.77,5.62,1.6,8.45,2.54,4.74,1.57,9.44,3.19,14.07,4.89.06.02.09.04.13.06,30.83,12.11,58.05,28.86,108.39,29.47.98.04,1.95.04,2.93.04h.81c.68,0,1.35-.02,2.01-.02,22.48-.13,41.64-3.63,57.46-10.46,16.19-6.99,28.51-16.93,36.97-29.82,8.46-12.89,12.69-28.06,12.69-45.53,0-15.43-2.89-28.36-8.67-38.78Z"/>
    </g>
  </g>
</svg>
