<svg width="750" height="154" viewBox="0 0 750 154" fill="none" xmlns="http://www.w3.org/2000/svg">
<g clip-path="url(#clip0_404_175)">
<mask id="mask0_404_175" style="mask-type:luminance" maskUnits="userSpaceOnUse" x="0" y="0" width="262" height="154">
<path d="M261.377 0H0V153.483H261.377V0Z" fill="white"/>
</mask>
<g mask="url(#mask0_404_175)">
<path d="M165.065 150.866C158.595 149.182 152.377 146.645 146.573 143.321C140.8 139.943 135.5 135.812 130.811 131.036C126.452 126.665 121.916 118.556 117.338 106.935C113.945 98.1519 111.026 89.1928 108.592 80.096L152.928 78.2148C153.728 92.9305 164.953 105.345 179.619 107.734L172.934 147.257L165.065 150.865L165.065 150.866Z" fill="#FBA554"/>
<path d="M184.841 153.604C178.158 153.573 171.508 152.652 165.065 150.867L176.753 107.131C179.396 107.813 182.114 108.157 184.843 108.155C189.357 108.159 193.822 107.209 197.946 105.368C202.07 103.527 205.761 100.837 208.78 97.4707L238.648 123.186L238.872 131.037C234.183 135.813 228.882 139.944 223.11 143.323C217.306 146.647 211.088 149.184 204.618 150.868C198.175 152.653 191.525 153.573 184.841 153.604Z" fill="#FAC353"/>
<path d="M238.87 131.038L207.117 99.197C210.186 96.2702 212.629 92.7465 214.294 88.8412C215.96 84.9359 216.814 80.7311 216.803 76.4837C216.807 72.9632 216.217 69.4674 215.06 66.1437L252.143 52.9883L258.645 57.0322C260.426 63.492 261.344 70.1601 261.375 76.862C261.344 83.5639 260.426 90.232 258.645 96.6918C256.966 103.179 254.437 109.414 251.122 115.233C247.753 121.021 243.633 126.336 238.87 131.038Z" fill="#FEFE67"/>
<path d="M215.791 68.5469C214.233 62.6997 211.051 57.416 206.617 53.3102C202.182 49.2044 196.676 46.4451 190.739 45.353L198.004 6.53125L204.618 2.85645C211.088 4.54051 217.305 7.0777 223.109 10.4016C228.882 13.7798 234.182 17.9109 238.871 22.6868C243.634 27.3887 247.754 32.7034 251.123 38.4917C254.438 44.3113 256.969 50.5462 258.648 57.0331L215.791 68.5469Z" fill="#D3EA5C"/>
<path d="M160.376 56.1094L130.665 30.9089L130.813 22.6855C135.502 17.9096 140.802 13.7785 146.575 10.4003C152.379 7.0766 158.597 4.53959 165.066 2.85567C171.508 1.07066 178.158 0.150459 184.842 0.119141C191.526 0.150459 198.176 1.07066 204.618 2.85567L193.119 45.8866C190.418 45.173 187.636 44.8125 184.843 44.8142C180.191 44.8048 175.594 45.8101 171.369 47.7603C167.144 49.7106 163.393 52.5592 160.376 56.1084V56.1094Z" fill="#71AE50"/>
<path d="M142.932 101.178L106.376 87.7955C107.768 84.1884 108.48 80.3533 108.474 76.4854C108.481 72.3286 107.662 68.212 106.064 64.3763C104.466 60.5406 102.122 57.0627 99.168 54.1458L130.542 22.6865C135.305 27.3884 139.425 32.7031 142.794 38.4914C146.11 44.3113 148.641 50.5465 150.32 57.0339C152.1 63.4938 153.018 70.1619 153.049 76.8637C153.018 83.5656 152.1 90.2338 150.32 96.6936L142.934 101.179L142.932 101.178Z" fill="#FBA554"/>
<path d="M150.235 96.947L107.195 85.3831C107.986 82.6971 108.414 79.9171 108.467 77.1172H152.464C153.352 78.0647 153.88 83.3074 150.235 96.947Z" fill="#0391CE"/>
<path d="M22.4825 131.037C17.7194 126.336 13.5994 121.022 10.2305 115.235C6.91557 109.414 4.3854 103.179 2.7062 96.6916C0.925998 90.2317 0.00827844 83.5636 -0.0229492 76.8617C0.00823331 70.1597 0.925953 63.4914 2.7062 57.0314L11.2009 51.3105L46.6492 65.1785C44.4243 70.9667 43.9577 77.2856 45.3082 83.3393C46.6587 89.3929 49.7659 94.9103 54.2383 99.1962L22.4825 131.037Z" fill="#8A38AF"/>
<path d="M45.5647 68.5479L2.70703 57.0326C6.07752 43.9921 12.8644 32.0926 22.3643 22.5669C31.8643 13.0412 43.7317 6.23605 56.737 2.85645L64.6559 7.75465L71.0918 45.269C65.0554 46.2771 59.4368 49.0092 54.9096 53.1378C50.3824 57.2665 47.1385 62.6166 45.5667 68.5469L45.5647 68.5479Z" fill="#A7194B"/>
<path d="M100.856 55.9605C97.8374 52.4554 94.0999 49.645 89.8987 47.7213C85.6975 45.7977 81.1317 44.806 76.5132 44.8142C73.7194 44.8134 70.9372 45.1747 68.2359 45.8892L56.7368 2.85567C63.1792 1.07063 69.8294 0.150429 76.5132 0.119141C83.1968 0.150486 89.8467 1.07069 96.289 2.85567C102.759 4.53972 108.977 7.0769 114.781 10.4008C120.554 13.779 125.854 17.9101 130.543 22.686L130.733 30.3085L100.856 55.9605Z" fill="#FE5D58"/>
<path d="M111.036 96.6926C109.256 90.2327 108.338 83.5646 108.307 76.8627C108.338 70.1612 109.256 63.4934 111.036 57.0339C112.715 50.5471 115.246 44.3124 118.561 38.493C121.929 32.7041 126.049 27.3889 130.812 22.6865L162.187 54.1464C159.233 57.0632 156.889 60.541 155.291 64.3766C153.694 68.2122 152.874 72.3287 152.881 76.4855C152.881 77.0864 152.898 77.694 152.932 78.2924L121.728 79.6914L111.037 96.691L111.036 96.6926Z" fill="#0391CE"/>
<path d="M96.2889 150.868L90.1118 141.674L82.9438 107.514C88.6603 106.387 93.9559 103.701 98.2479 99.7509C102.54 95.8008 105.662 90.74 107.27 85.1255L150.318 96.694C148.639 103.181 146.109 109.416 142.794 115.235C139.425 121.024 135.305 126.339 130.542 131.04C125.853 135.816 120.552 139.947 114.78 143.326C108.976 146.65 102.758 149.187 96.2884 150.871L96.2889 150.868Z" fill="#556BFE"/>
<path d="M76.5139 153.604C69.8301 153.572 63.18 152.652 56.7376 150.868C50.2443 149.172 44.0065 146.614 38.19 143.259C32.3998 139.857 27.0813 135.705 22.3716 130.911L54.1891 99.1484C60.1772 104.951 68.1864 108.183 76.5139 108.158C79.2424 108.159 81.9602 107.815 84.6028 107.134L96.2897 150.869C89.8474 152.653 83.1974 153.573 76.5139 153.604Z" fill="#4E34A4"/>
</g>
</g>
<path d="M670.438 79.1802C670.438 71.1436 672.045 63.9872 675.259 57.711C678.551 51.4348 683.22 46.5746 689.266 43.1303C695.313 39.6095 702.431 37.8491 710.62 37.8491C717.662 37.8491 723.938 39.1886 729.449 41.8674C735.036 44.4697 739.552 48.1819 742.996 53.0038C746.517 57.8258 748.852 63.4514 750 69.8807H723.135C721.91 67.2018 720.15 65.1353 717.853 63.681C715.634 62.1502 713.07 61.3849 710.161 61.3849C705.875 61.3849 702.469 62.9922 699.943 66.2068C697.494 69.4215 696.269 73.7459 696.269 79.1802C696.269 84.6144 697.494 88.9389 699.943 92.1535C702.469 95.3682 705.875 96.9755 710.161 96.9755C713.07 96.9755 715.634 96.2484 717.853 94.7941C720.15 93.2633 721.91 91.1585 723.135 88.4797H750C748.852 94.9089 746.517 100.535 742.996 105.357C739.552 110.178 735.036 113.929 729.449 116.608C723.938 119.21 717.662 120.511 710.62 120.511C702.431 120.511 695.313 118.789 689.266 115.345C683.22 111.824 678.551 106.926 675.259 100.649C672.045 94.3731 670.438 87.2168 670.438 79.1802Z" fill="#1C1E21"/>
<path d="M661.223 38.6528V119.937H635.735V38.6528H661.223Z" fill="#1C1E21"/>
<path d="M627.651 66.5513C627.651 71.6794 626.465 76.3483 624.092 80.5579C621.72 84.691 618.199 87.9822 613.53 90.4314C608.938 92.8807 603.35 94.1053 596.768 94.1053H586.665V119.937H561.177V38.6528H596.768C606.718 38.6528 614.334 41.1786 619.615 46.2302C624.972 51.2818 627.651 58.0555 627.651 66.5513ZM593.898 74.0138C599.179 74.0138 601.819 71.5263 601.819 66.5513C601.819 61.5763 599.179 59.0887 593.898 59.0887H586.665V74.0138H593.898Z" fill="#1C1E21"/>
<path d="M510.307 120.741C502.654 120.741 495.612 118.942 489.183 115.345C482.83 111.748 477.778 106.773 474.028 100.42C470.278 94.0673 468.402 86.9109 468.402 78.9509C468.402 70.9908 470.278 63.8344 474.028 57.4817C477.778 51.1289 482.83 46.1922 489.183 42.6714C495.612 39.0741 502.654 37.2754 510.307 37.2754C517.961 37.2754 524.965 39.0741 531.317 42.6714C537.67 46.1922 542.683 51.1289 546.357 57.4817C550.108 63.8344 551.983 70.9908 551.983 78.9509C551.983 86.9109 550.108 94.0673 546.357 100.42C542.683 106.773 537.632 111.748 531.203 115.345C524.85 118.942 517.885 120.741 510.307 120.741ZM510.307 96.9758C515.359 96.9758 519.262 95.3685 522.018 92.1538C524.773 88.8627 526.151 84.4617 526.151 78.9509C526.151 73.3635 524.773 68.9625 522.018 65.7479C519.262 62.4567 515.359 60.8111 510.307 60.8111C505.179 60.8111 501.238 62.4567 498.482 65.7479C495.727 68.9625 494.349 73.3635 494.349 78.9509C494.349 84.4617 495.727 88.8627 498.482 92.1538C501.238 95.3685 505.179 96.9758 510.307 96.9758Z" fill="#1C1E21"/>
<path d="M419.828 120.741C412.174 120.741 405.132 118.942 398.703 115.345C392.35 111.748 387.299 106.773 383.548 100.42C379.798 94.0673 377.923 86.9109 377.923 78.9509C377.923 70.9908 379.798 63.8344 383.548 57.4817C387.299 51.1289 392.35 46.1922 398.703 42.6714C405.132 39.0741 412.174 37.2754 419.828 37.2754C427.482 37.2754 434.485 39.0741 440.838 42.6714C447.191 46.1922 452.204 51.1289 455.878 57.4817C459.628 63.8344 461.503 70.9908 461.503 78.9509C461.503 86.9109 459.628 94.0673 455.878 100.42C452.204 106.773 447.152 111.748 440.723 115.345C434.37 118.942 427.405 120.741 419.828 120.741ZM419.828 96.9758C424.88 96.9758 428.783 95.3685 431.538 92.1538C434.294 88.8627 435.672 84.4617 435.672 78.9509C435.672 73.3635 434.294 68.9625 431.538 65.7479C428.783 62.4567 424.88 60.8111 419.828 60.8111C414.7 60.8111 410.758 62.4567 408.003 65.7479C405.247 68.9625 403.87 73.3635 403.87 78.9509C403.87 84.4617 405.247 88.8627 408.003 92.1538C410.758 95.3685 414.7 96.9758 419.828 96.9758Z" fill="#1C1E21"/>
<path d="M347.63 100.649H372.199V119.937H322.143V38.6528H347.63V100.649Z" fill="#1C1E21"/>
<defs>
<clipPath id="clip0_404_175">
<rect width="261.377" height="153.483" fill="white"/>
</clipPath>
</defs>
</svg>
